<svg xmlns="http://www.w3.org/2000/svg" width="81" height="19" fill="none"><path fill="#45B871" d="M14.7884 1.39911V12.3905c0 1.2548-.2827 2.3547-.8482 3.2997-.5577.945-1.3671 1.6692-2.4283 2.1727-1.0612.5035-2.316.7552-3.76447.7552-2.18433 0-3.88067-.5577-5.08902-1.6731C1.45006 15.8219.845883 14.2882.845883 12.344V1.39911H4.43608V11.7979c0 1.3091.26336 2.2695.79008 2.8815.52671.6119 1.39812.9178 2.61422.9178 1.17737 0 2.02941-.3059 2.55612-.9178.5345-.6197.8017-1.5879.8017-2.9047V1.39911h3.5902Z"/><path fill="#242323" d="M17.5188 13.4594v-2.9047h6.2393v2.9047h-6.2393Zm16.3127-9.30664c-1.3555 0-2.405.51123-3.1486 1.53368-.7436 1.0147-1.1154 2.43219-1.1154 4.25246 0 3.7877 1.4213 5.6816 4.264 5.6816 1.1929 0 2.6375-.2982 4.3338-.8947v3.0209c-1.3942.5809-2.9511.8714-4.6707.8714-2.4709 0-4.3609-.7475-5.67-2.2424-1.309-1.5027-1.9635-3.656-1.9635-6.46003 0-1.76606.3214-3.31135.9643-4.63589.6429-1.33229 1.5647-2.35086 2.7653-3.05573 1.2083-.71262 2.622-1.06893 4.2408-1.06893 1.6499 0 3.3075.39891 4.9729 1.19673l-1.1619 2.92793c-.6352-.30209-1.2742-.56545-1.9171-.79008s-1.2742-.33694-1.8939-.33694Zm19.171 7.78454c0 2.0992-.5383 3.7374-1.615 4.9148-1.0767 1.1773-2.5755 1.766-4.4965 1.766-1.2006 0-2.2618-.2711-3.1835-.8133-.9218-.5422-1.6305-1.3207-2.1262-2.3354-.4958-1.0147-.7436-2.192-.7436-3.5321 0-2.0836.5344-3.71023 1.6033-4.87985 1.069-1.16962 2.5755-1.75443 4.5197-1.75443 1.859 0 3.3308.6003 4.4152 1.8009 1.0844 1.19286 1.6266 2.804 1.6266 4.83338Zm-9.3531 0c0 2.9667 1.096 4.45 3.2881 4.45 2.1688 0 3.2533-1.4833 3.2533-4.45 0-2.93564-1.0922-4.40348-3.2765-4.40348-1.1464 0-1.9791.37955-2.4981 1.13864-.5112.75909-.7668 1.84734-.7668 3.26484Zm16.8356 6.6808c-1.6034 0-2.8544-.5809-3.7529-1.7428-.8985-1.1619-1.3478-2.7924-1.3478-4.8915 0-2.10686.4532-3.74511 1.3594-4.91473.9141-1.17737 2.1766-1.76605 3.7878-1.76605 1.6886 0 2.9744.62354 3.8574 1.87062h.1394c-.1317-.92176-.1975-1.64987-.1975-2.18433V.30695h2.742V18.3857H64.935l-.4764-1.6847h-.1278c-.8753 1.2781-2.1572 1.9171-3.8458 1.9171Zm.732-2.2075c1.1231 0 1.9403-.3138 2.4515-.9412.5113-.6351.7746-1.6614.7901-3.0789v-.3835c0-1.6188-.2634-2.7691-.7901-3.45073-.5267-.68163-1.3516-1.02245-2.4748-1.02245-.9605 0-1.7002.39116-2.2192 1.17349-.5189.77459-.7784 1.88229-.7784 3.32299 0 1.4252.2517 2.5135.7552 3.2649.5035.7436 1.2587 1.1154 2.2657 1.1154Zm17.7999 1.9751-.5461-1.7892h-.0929c-.6197.7823-1.2432 1.3167-1.8706 1.6033-.6275.2789-1.433.4183-2.4167.4183-1.2626 0-2.2502-.3408-2.9628-1.0224-.7049-.6817-1.0573-1.646-1.0573-2.8931 0-1.3245.4918-2.3238 1.4755-2.9976.9838-.6739 2.4826-1.0419 4.4965-1.1038l2.2192-.0697v-.68555c0-.82106-.1937-1.43298-.581-1.83576-.3795-.41053-.9721-.6158-1.7776-.6158-.6584 0-1.2897.09683-1.8939.29047-.6042.19365-1.1851.42215-1.7428.68551l-.883-1.95195c.6971-.36406 1.4601-.63903 2.2889-.82493.8288-.19365 1.6111-.29047 2.347-.29047 1.6343 0 2.8659.35631 3.6947 1.06892.8366.71262 1.2549 1.83189 1.2549 3.35782v8.65594h-1.952Zm-4.0666-1.859c.9915 0 1.7855-.2749 2.3819-.8249.6042-.5577.9063-1.3361.9063-2.3354V12.251l-1.6499.0697c-1.2858.0465-2.2231.2634-2.8118.6507-.5809.3795-.8714.9644-.8714 1.7544 0 .5732.1704 1.0186.5113 1.3362.3408.3098.852.4647 1.5336.4647Z"/></svg>